<?xml version="1.0" standalone="no"?><!DOCTYPE svg PUBLIC "-//W3C//DTD SVG 1.1//EN" "http://www.w3.org/Graphics/SVG/1.1/DTD/svg11.dtd"><svg t="1620705587353" class="icon" viewBox="0 0 1024 1024" version="1.1" xmlns="http://www.w3.org/2000/svg" p-id="2683" xmlns:xlink="http://www.w3.org/1999/xlink" width="200" height="200"><defs><style type="text/css"></style></defs><path d="M512 512m-512 0a512 512 0 1 0 1024 0 512 512 0 1 0-1024 0Z" fill="#1BC1FA" p-id="2684"></path><path d="M823.367 628.646l-197.482-66.128h0.007s17.476-24.965 34.949-74.899c18.729-49.935 21.224-77.4 21.224-77.4l-142.314-1.247v-48.686l172.274-1.25v-34.953H539.75v-78.647h-84.886v77.4H291.328v34.953l161.038-1.25v52.433h-128.58v27.462h265.899s-2.498 22.472-12.484 49.936c-11.237 27.466-21.221 51.184-21.221 51.184s-124.836-43.692-190.998-43.692c-66.164 0-146.059 27.462-153.55 103.615-7.49 76.148 37.452 118.594 101.117 133.574 62.417 14.979 121.088 0 172.273-24.964 51.184-24.97 101.115-81.146 101.115-81.146l32.145 15.617c51.981-19.616 125.842-25.149 205.285-11.912z m-469.62 59.959h0.001-0.001c-93.626 0-112.353-46.189-112.353-78.652 0-32.458 19.975-68.656 98.62-73.648 78.65-4.994 186.008 56.174 186.008 56.174s-78.649 96.126-172.275 96.126z" fill="#FFFFFF" p-id="2685"></path><path d="M299.749 688.605h-0.002z" p-id="2686"></path><path d="M879.304 704.838c12.485-23.721 22.472-49.937 22.472-49.937l-78.408-26.255c-79.443-13.237-153.305-7.704-205.285 11.912L850.59 753.521s16.227-24.962 28.714-48.683z" fill="#FFFFFF" opacity=".4" p-id="2687"></path></svg>