<?xml version="1.0" standalone="no"?><!DOCTYPE svg PUBLIC "-//W3C//DTD SVG 1.1//EN" "http://www.w3.org/Graphics/SVG/1.1/DTD/svg11.dtd"><svg t="1621927658123" class="icon" viewBox="0 0 1024 1024" version="1.1" xmlns="http://www.w3.org/2000/svg" p-id="2369" xmlns:xlink="http://www.w3.org/1999/xlink" width="200" height="200"><defs><style type="text/css"></style></defs><path d="M515 354.1c-82.8 0-150.1 67.3-150.1 150.1S432.2 654.4 515 654.4 665.1 587 665.1 504.2 597.8 354.1 515 354.1z m0 273.4c-68 0-123.3-55.3-123.3-123.3S447 381 515 381s123.3 55.3 123.3 123.3S583 627.5 515 627.5z" fill="" p-id="2370"></path><path d="M1005.5 645.4C958.8 613.1 931 560.3 931 504c0-53.9 24.9-103.9 68.2-136.9l8.8-6.7L912.4 163l-13.2 10c-22.2 16.8-35.4 16.6-64.6 15.8-6-0.1-12.5-0.3-19.7-0.3-57.6 0-110.8-28.6-143.1-76.8l-2.1-3.5C652.2 80.6 643 48.8 643 15.8V2.2H401.8l-0.6 12.9c-4.3 91.9-79.6 163.8-171.4 163.8-6.6 0-12.7 0.1-18.4 0.2-28.5 0.5-43 0.9-65.1-15.6l-13.2-9.8-91.7 190.8 9.1 6.7c43.8 32.3 69.9 83.9 69.9 137.9 0 66.4-39 127.5-99.4 155.8l-12.7 6L126.4 883l13-10c30.4-23.5 66.7-36 104.9-36 94.9 0 172.1 77.1 172.1 171.9v13.6h227.5l-1.3-14.8c-0.5-5.6-0.8-11.4-0.8-17.3 0-94.9 77.1-172.2 171.9-172.2 30.7 0 61.4 8.6 88.7 24.7l12.5 7.4 100.4-198.1-9.8-6.8zM903.4 812.5c-28.2-14.1-59-21.6-89.8-21.6-109.7 0-199 89.4-199 199.3 0 1.6 0 3.3 0.1 4.9H443.1c-7-103.4-93.5-185.5-198.8-185.5-38.2 0-76.1 11.4-108.3 32.2L45 663c62.8-35 102.6-101.8 102.6-174 0-58.8-26.8-115.1-72.1-152.7l68.3-142c23.1 12.9 42.6 12.5 68.2 12 5.5-0.1 11.4-0.2 17.9-0.2 101.9 0 186.3-76.7 197.5-176.8h189.1c2.1 31.7 11.8 62.5 28.4 89.9l2.1 3.7c37.1 58 99.9 92.6 168.1 92.6 6.9 0 13.2 0.1 19 0.3 25.3 0.6 44.7 1.1 67.9-12.2l72 148.8c-44.8 38.1-70.2 92.7-70.2 151.5 0 61.3 28.4 119 76.7 156.7l-77.1 151.9z" fill="" p-id="2371"></path><path d="M513.9 186.5l-3.3 26.9c187.1 22.9 326 176 309.5 341.4l27 2.7c17.9-179.9-131.5-346.4-333.2-371z" fill="" p-id="2372"></path><path d="M825 611.8m-16.1 0a16.1 16.1 0 1 0 32.2 0 16.1 16.1 0 1 0-32.2 0Z" fill="" p-id="2373"></path></svg>